<?xml version="1.0" standalone="no"?>
<!DOCTYPE svg PUBLIC "-//W3C//DTD SVG 20010904//EN"
 "http://www.w3.org/TR/2001/REC-SVG-20010904/DTD/svg10.dtd">
<svg version="1.0" xmlns="http://www.w3.org/2000/svg"
 width="576.000000pt" height="576.000000pt" viewBox="0 0 576.000000 576.000000"
 preserveAspectRatio="xMidYMid meet">
<metadata>
Created by potrace 1.11, written by Peter Selinger 2001-2013
</metadata>
<g transform="translate(0.000000,576.000000) scale(0.100000,-0.100000)"
fill="#000000" stroke="none">
<path d="M180 5431 c-69 -21 -121 -65 -156 -131 -28 -52 -28 -308 0 -360 26
-49 64 -88 111 -113 39 -21 53 -22 422 -25 350 -3 382 -4 387 -20 2 -9 161
-782 351 -1717 l347 -1699 -23 -15 c-57 -35 -166 -158 -197 -221 -128 -261
-44 -561 203 -722 172 -113 418 -113 590 0 156 102 247 253 261 437 11 129
-39 287 -120 382 -20 22 -36 44 -36 47 0 3 468 6 1040 6 572 0 1040 -3 1040
-6 0 -3 -16 -25 -36 -47 -175 -206 -157 -542 42 -741 182 -182 478 -216 689
-78 170 111 260 274 260 472 0 195 -94 366 -257 472 -29 18 -48 37 -48 49 0
10 12 69 26 130 33 141 30 207 -12 275 -18 30 -48 60 -78 79 l-49 30 -1379 3
-1378 2 -5 23 c-13 56 -55 271 -55 283 0 12 249 14 1498 16 l1499 3 48 30 c99
61 79 -6 350 1188 135 592 245 1092 245 1110 -1 71 -60 160 -135 200 l-40 22
-1997 3 -1997 2 -11 58 c-92 446 -104 485 -169 532 -71 50 -75 50 -660 49
-300 0 -557 -4 -571 -8z"/>
</g>
</svg>
